<svg width="49" height="44" viewBox="0 0 49 44" fill="none" xmlns="http://www.w3.org/2000/svg">
<path d="M39.5107 12.7796C40.0377 12.7796 40.4651 12.3949 40.4651 11.9204V2.57739C40.4651 1.15622 39.1807 0 37.602 0H2.86309C1.28438 0 0 1.15622 0 2.57739V41.4101C0 42.8313 1.28438 43.9875 2.86309 43.9875H37.602C39.1807 43.9875 40.4651 42.8313 40.4651 41.4101V35.0807C40.4651 34.6062 40.0377 34.2216 39.5107 34.2216C38.9837 34.2216 38.5563 34.6062 38.5563 35.0807V41.4101C38.5563 41.8838 38.1282 42.2692 37.602 42.2692H2.86309C2.33686 42.2692 1.90873 41.8838 1.90873 41.4101V2.57739C1.90873 2.10367 2.33686 1.71826 2.86309 1.71826H37.602C38.1282 1.71826 38.5563 2.10367 38.5563 2.57739V11.9204C38.5563 12.3949 38.9837 12.7796 39.5107 12.7796Z" fill="#363636"/>
<path d="M20.2325 4.6393C15.3911 4.6393 11.4523 8.18502 11.4523 12.5433C11.4523 14.8043 12.5126 16.8463 14.2087 18.2882C14.2405 18.3188 14.2743 18.3478 14.3112 18.3741C15.8736 19.661 17.9529 20.4472 20.2324 20.4472C22.5119 20.4472 24.5912 19.6609 26.1536 18.3741C26.1905 18.3478 26.2243 18.3187 26.2561 18.2882C27.9523 16.8463 29.0126 14.8043 29.0126 12.5433C29.0126 8.18502 25.0739 4.6393 20.2325 4.6393ZM20.2325 18.729C18.6741 18.729 17.2359 18.2589 16.0819 17.4689C16.9206 16.1299 18.4859 15.2925 20.2325 15.2925C21.9791 15.2925 23.5443 16.1299 24.3831 17.4689C23.229 18.2589 21.7909 18.729 20.2325 18.729ZM18.7055 12.1996V11.6412C18.7055 10.8833 19.3905 10.2666 20.2325 10.2666C21.0744 10.2666 21.7595 10.8833 21.7595 11.6412V12.1996C21.7595 12.9576 21.0744 13.5743 20.2325 13.5743C19.3905 13.5743 18.7055 12.9576 18.7055 12.1996ZM25.7621 16.2103C25.0582 15.2706 24.0828 14.5397 22.9502 14.0885C23.3997 13.5656 23.6682 12.9105 23.6682 12.1996V11.6412C23.6682 9.93575 22.127 8.54834 20.2325 8.54834C18.338 8.54834 16.7968 9.93575 16.7968 11.6412V12.1996C16.7968 12.9105 17.0652 13.5656 17.5147 14.0885C16.3822 14.5397 15.4067 15.2706 14.7029 16.2103C13.8603 15.1834 13.3611 13.9151 13.3611 12.5433C13.3611 9.13246 16.4436 6.35756 20.2325 6.35756C24.0214 6.35756 27.1039 9.13246 27.1039 12.5433C27.1039 13.9151 26.6047 15.1834 25.7621 16.2103Z" fill="#363636"/>
<path d="M25.3861 37.6299H20.2325C19.7055 37.6299 19.2781 38.0145 19.2781 38.489C19.2781 38.9635 19.7055 39.3481 20.2325 39.3481H25.3861C25.9131 39.3481 26.3404 38.9635 26.3404 38.489C26.3404 38.0145 25.9131 37.6299 25.3861 37.6299Z" fill="#363636"/>
<path d="M25.3861 32.8187H11.8341C11.3071 32.8187 10.8798 33.2034 10.8798 33.6779C10.8798 34.1524 11.3071 34.537 11.8341 34.537H25.3861C25.9131 34.537 26.3405 34.1524 26.3405 33.6779C26.3405 33.2034 25.9131 32.8187 25.3861 32.8187Z" fill="#363636"/>
<path d="M25.3861 28.0076H11.8341C11.3071 28.0076 10.8798 28.3923 10.8798 28.8668C10.8798 29.3413 11.3071 29.7259 11.8341 29.7259H25.3861C25.9131 29.7259 26.3405 29.3413 26.3405 28.8668C26.3405 28.3923 25.9131 28.0076 25.3861 28.0076Z" fill="#363636"/>
<path d="M8.43269 23.4482C8.25528 23.2884 8.00905 23.1965 7.7571 23.1965C7.50601 23.1965 7.25978 23.2884 7.08236 23.4482C6.90485 23.608 6.80273 23.8297 6.80273 24.0556C6.80273 24.2816 6.90476 24.5032 7.08236 24.663C7.26083 24.8228 7.50601 24.9148 7.7571 24.9148C8.00905 24.9148 8.25432 24.8228 8.43269 24.663C8.6102 24.5032 8.71242 24.2816 8.71242 24.0556C8.71242 23.8297 8.6103 23.608 8.43269 23.4482Z" fill="#363636"/>
<path d="M8.43269 28.2594C8.25432 28.0996 8.00905 28.0076 7.7571 28.0076C7.50601 28.0076 7.26083 28.0996 7.08236 28.2594C6.90485 28.4192 6.80273 28.6408 6.80273 28.8668C6.80273 29.0927 6.90476 29.3144 7.08236 29.4742C7.26083 29.634 7.50601 29.7259 7.7571 29.7259C8.00905 29.7259 8.25432 29.634 8.43269 29.4742C8.6102 29.3144 8.71242 29.0927 8.71242 28.8668C8.71242 28.6408 8.6103 28.4192 8.43269 28.2594Z" fill="#363636"/>
<path d="M8.43269 33.0705C8.25432 32.9107 8.00905 32.8187 7.7571 32.8187C7.50601 32.8187 7.26083 32.9107 7.08236 33.0705C6.90485 33.2303 6.80273 33.4519 6.80273 33.6779C6.80273 33.9038 6.90476 34.1255 7.08236 34.2853C7.25978 34.4451 7.50601 34.537 7.7571 34.537C8.00905 34.537 8.25528 34.4451 8.43269 34.2853C8.6102 34.1255 8.71242 33.9038 8.71242 33.6779C8.71242 33.4519 8.6103 33.2303 8.43269 33.0705Z" fill="#363636"/>
<path d="M25.3861 23.1965H11.8341C11.3071 23.1965 10.8798 23.5811 10.8798 24.0556C10.8798 24.5301 11.3071 24.9148 11.8341 24.9148H25.3861C25.9131 24.9148 26.3405 24.5301 26.3405 24.0556C26.3405 23.5811 25.9131 23.1965 25.3861 23.1965Z" fill="#363636"/>
<path d="M46.8588 11.1961C45.9316 10.7142 44.8515 10.5862 43.8171 10.8356C42.783 11.0851 41.9185 11.6822 41.3833 12.5168L29.3734 31.2427C29.3076 31.3454 29.266 31.4592 29.2514 31.577L28.406 38.3937C28.364 38.7329 28.549 39.0623 28.8773 39.2331C29.0255 39.31 29.1901 39.3482 29.3544 39.3482C29.554 39.3482 29.7529 39.2919 29.9204 39.1808L36.0555 35.1134C36.1615 35.0431 36.2502 34.9538 36.316 34.8511L48.3258 16.1253C49.431 14.4022 48.7729 12.191 46.8588 11.1961ZM30.545 36.6327L30.9865 33.0732L33.7486 34.5088L30.545 36.6327ZM35.1402 33.2479L31.5036 31.3578L41.1413 16.3308L44.7779 18.2209L35.1402 33.2479ZM46.6729 15.2661L45.7321 16.7329L42.0955 14.8428L43.0363 13.376C43.3167 12.9388 43.7694 12.626 44.3111 12.4954C44.853 12.3646 45.4187 12.4318 45.9043 12.6842C46.39 12.9366 46.7374 13.3442 46.8825 13.8318C47.0277 14.3195 46.9533 14.8288 46.6729 15.2661Z" fill="#363636"/>
</svg>
