<svg width="47" height="47" viewBox="0 0 47 47" fill="none" xmlns="http://www.w3.org/2000/svg">
<path d="M10.1381 41.3893C13.9032 44.2611 18.5954 45.97 23.6797 45.97C28.764 45.97 33.456 44.2611 37.2213 41.3893C34.4847 36.5222 29.378 33.4783 23.6797 33.4783C17.9814 33.4783 12.8747 36.5222 10.1381 41.3893Z" stroke="#0288D1" stroke-width="1.3"/>
<path d="M32.5465 29.1019C36.2414 30.742 39.4239 33.3987 41.7202 36.8145C44.4693 33.0817 46.098 28.4713 46.098 23.485C46.098 11.0867 36.0412 1 23.6797 1C11.3182 1 1.26141 11.0867 1.26141 23.485C1.26141 28.4713 2.89017 33.0817 5.63921 36.8145C7.93553 33.3987 11.118 30.742 14.813 29.1019C13.3464 27.2009 12.4706 24.8197 12.4706 22.2358V20.2059C12.4706 14.0066 17.4988 8.96343 23.6797 8.96343C29.8606 8.96343 34.8889 14.0066 34.8889 20.2059V22.2358C34.8889 24.8197 34.013 27.2009 32.5465 29.1019Z" stroke="#0288D1" stroke-width="1.3"/>
</svg>
