<svg width="47" height="44" viewBox="0 0 47 44" fill="none" xmlns="http://www.w3.org/2000/svg">
<path d="M43.8119 10.9995C40.6769 5.91494 35.615 2.27798 29.5587 0.758416C23.5025 -0.761153 17.1767 0.0187274 11.7467 2.95421C6.31678 5.88969 2.43263 10.6296 0.809904 16.3005C-0.812817 21.9715 0.0199588 27.8949 3.15489 32.9794C5.96697 37.5402 10.4365 41.0065 15.74 42.7394C18.254 43.5607 20.8784 43.9706 23.4988 43.9706C26.348 43.9706 29.192 43.4858 31.8803 42.5183C32.3531 42.3482 32.589 41.8514 32.4072 41.4086C32.2254 40.9659 31.6947 40.7448 31.2221 40.9153C24.0665 43.4906 16.32 42.3204 10.5325 38.2526L11.3542 34.2364L11.7501 34.116C13.2462 33.6609 14.068 32.1507 13.5821 30.7497L13.2916 29.9124C13.2243 29.7187 13.2247 29.5139 13.2925 29.3203C13.5473 28.5927 13.4563 27.7967 13.0425 27.1361C12.6288 26.4756 11.9313 26.0124 11.1287 25.8655L9.0587 25.4867L5.06468 22.6432C4.82539 22.4729 4.51218 22.4231 4.22621 22.51L1.88784 23.2213C1.83822 22.4382 1.83748 21.6553 1.88463 20.8765C1.97689 20.957 2.03697 21.0117 2.07393 21.0476C2.11969 21.119 2.17637 21.1844 2.24278 21.2411C2.43373 21.4039 2.6067 21.4778 2.9699 21.4778C3.30365 21.4777 3.79772 21.4154 4.61353 21.3026C5.38724 21.1955 6.15692 21.0748 6.16453 21.0736C6.47297 21.0253 6.73372 20.8329 6.85643 20.5637C6.97915 20.2943 6.94677 19.9851 6.77058 19.7431L5.64606 18.1986L7.25677 17.1201C7.36408 17.0482 7.45359 16.9556 7.51917 16.8484L10.0159 12.7669L11.0223 11.7571C12.0507 10.725 12.3442 9.21498 11.7699 7.90994C11.4311 7.14019 10.8394 6.49935 10.0992 6.06746C10.9008 5.47738 11.7555 4.93255 12.6639 4.44157C15.9966 2.6398 19.6337 1.76665 23.2325 1.73325L21.5948 3.65688L15.5219 5.65042C15.2753 5.73132 15.0772 5.90704 14.9776 6.13324L13.2816 9.98309C13.1611 10.2566 13.1994 10.5687 13.3829 10.8095L15.86 14.0586C15.5052 14.3616 15.1599 14.8031 14.7474 15.3511C14.5666 15.5915 14.3958 15.8185 14.2778 15.9458C14.1751 16.0566 14.0724 16.1648 13.9706 16.2719C13.4378 16.8332 12.887 17.4136 12.4956 18.189C11.6352 19.8945 11.809 21.8768 12.9492 23.3623C14.0517 24.7987 15.8693 25.5288 17.8093 25.3152C18.1253 25.2805 18.42 25.2122 18.7052 25.1461C19.4914 24.9639 19.7405 24.9457 19.9927 25.1668C20.1155 25.2744 20.1267 25.2947 20.1243 25.6596C20.1225 25.8918 20.1206 26.1807 20.2061 26.5106C20.343 27.0384 20.6969 27.4031 20.9813 27.6961C21.1226 27.8417 21.2688 27.9923 21.3138 28.0934C21.5999 28.7353 21.4753 29.0907 21.2024 29.8697C21.179 29.9363 21.1551 30.0043 21.1312 30.0741C20.7166 31.276 21.2946 32.4681 21.8045 33.5198C21.9701 33.8614 22.1265 34.1838 22.229 34.4687C23.0536 36.7599 23.6717 37.2847 24.1678 37.4959C24.4276 37.6065 24.6966 37.6551 24.9682 37.655C26.2903 37.6549 27.6699 36.5055 28.3036 35.7768C28.7017 35.3192 28.7997 34.861 28.8713 34.5264C28.9069 34.3599 28.935 34.2285 28.9886 34.1426C29.0706 34.0112 29.1671 33.9094 29.2894 33.7804C29.5353 33.5211 29.8413 33.1986 30.0395 32.6138C30.1901 32.1696 30.2995 32.0607 30.6619 31.6993C30.725 31.6366 30.7922 31.5694 30.8644 31.4959C32.086 30.2512 31.7714 29.3004 31.4382 28.2938C31.1578 27.4467 31.6482 26.905 32.8339 25.8711C33.3479 25.4229 33.8793 24.9594 34.2901 24.4026C34.4698 24.1589 35.0168 23.4175 34.6783 22.6826C34.3466 21.962 33.5034 21.841 32.826 21.7437C32.5585 21.7053 32.1542 21.6472 32.0255 21.5685C31.4581 21.2211 31.111 20.4961 30.7752 19.7949C30.7083 19.6553 30.6424 19.5175 30.5755 19.3838C30.4563 19.1453 30.3372 18.8566 30.211 18.551C29.8774 17.7424 29.4992 16.8258 28.8555 16.1868C28.2769 15.6127 27.1861 15.3362 26.2237 15.0921C25.9 15.0101 25.5945 14.9326 25.393 14.863C25.2242 14.8046 25.0409 14.794 24.8661 14.8325C24.3977 14.9353 24.1055 15.0486 23.8885 15.2114C23.8312 15.2544 23.6615 15.3957 23.562 15.6228C23.2263 15.4719 22.7646 15.1838 22.4804 15.0064C22.4746 15.0027 22.4686 14.999 22.4627 14.9953C22.5585 14.6365 22.4718 14.3486 22.381 14.1687C21.8687 13.154 20.168 13.2334 19.8325 13.2601C19.6419 13.2751 19.4008 13.2831 19.1458 13.2915C18.7451 13.3048 18.3023 13.3197 17.8642 13.3658L17.8868 13.3068C18.2193 12.4392 19.1042 11.8562 20.0887 11.8562H20.6101C21.1164 11.8562 21.5271 11.4717 21.5271 10.9975C21.5271 10.5234 21.1164 10.1388 20.6101 10.1388H20.0887C18.6271 10.1388 17.2887 10.8591 16.5386 11.9928L15.1706 10.1985L16.5165 7.1438L22.4507 5.19569C22.6134 5.14227 22.7569 5.04694 22.8644 4.92061L25.5025 1.82213C32.243 2.42252 38.5879 5.96131 42.2237 11.858C43.1921 13.4287 43.9085 15.0822 44.3848 16.7735L43.996 17.0981C43.4885 17.5221 43.1912 18.1302 43.1798 18.7667C43.1797 18.7736 43.1795 18.7805 43.1792 18.7874L42.5459 17.1563C42.4515 16.913 42.3124 16.6898 42.1329 16.493L41.003 15.2544C40.565 14.7742 39.9272 14.4989 39.253 14.4989H37.87C37.3791 14.4989 36.9304 14.7507 36.6988 15.1558C36.4672 15.561 36.4925 16.0504 36.7648 16.4327L36.9048 16.6295C36.0111 17.3491 34.9775 17.9249 33.8769 18.3132L31.9812 14.913V14.1544C31.9812 13.9198 31.8786 13.6952 31.6973 13.5333L29.9902 12.0073C29.896 11.9231 29.7837 11.8587 29.6609 11.8183L28.1242 11.3126C27.6461 11.1551 27.1228 11.3907 26.955 11.838C26.787 12.2855 27.0382 12.7757 27.5161 12.9329L28.8665 13.3773L30.147 14.5219V15.1237C30.147 15.2621 30.1828 15.3985 30.2512 15.5212L32.6245 19.778C32.838 20.161 33.3224 20.3361 33.7547 20.1863L34.4458 19.9477C36.0513 19.3933 37.5394 18.5014 38.7493 17.3686C39.0584 17.0791 39.1064 16.6258 38.8638 16.2851L38.8151 16.2165H39.253C39.3899 16.2165 39.5195 16.2724 39.6085 16.3699L40.7383 17.6086C40.7747 17.6485 40.8029 17.6937 40.8222 17.7433L42.069 20.9537C42.1762 21.2296 42.4263 21.435 42.7321 21.4985C42.7982 21.5122 42.8647 21.5189 42.9308 21.5189C43.1714 21.5189 43.4055 21.4302 43.5792 21.2674L44.1727 20.7116C44.5486 20.3596 44.8073 19.9142 44.9309 19.4205C45.8488 26.3085 42.9644 33.4339 36.8678 37.9146C36.4692 38.2074 36.3997 38.7471 36.7126 39.1203C37.0252 39.4934 37.6016 39.5585 38.0002 39.2656C42.4018 36.0307 45.4256 31.4039 46.5148 26.2374C47.6141 21.0211 46.6543 15.6094 43.8119 10.9995ZM4.33646 24.2824L8.11816 26.9748C8.22996 27.0544 8.35965 27.1089 8.4974 27.134L10.7767 27.5511C11.0676 27.6043 11.3103 27.7654 11.4603 28.0049C11.6102 28.2442 11.6418 28.5212 11.5495 28.7849C11.3597 29.3271 11.3587 29.9005 11.547 30.443L11.8376 31.2802C12.0112 31.7805 11.7175 32.3199 11.1833 32.4825L10.2719 32.7598C9.95394 32.8565 9.71749 33.1076 9.65467 33.4149L8.92113 37.0003C7.3085 35.6182 5.89259 33.9848 4.74331 32.1208C3.34116 29.8469 2.46509 27.4216 2.07897 24.9691L4.33646 24.2824ZM9.68136 10.5854L8.60251 11.6677C8.55436 11.7161 8.51226 11.7695 8.47713 11.8269L6.02723 15.832L3.84981 17.2899C3.44425 17.5614 3.34464 18.0864 3.62548 18.4722L4.43982 19.5907C3.97042 19.6562 3.54917 19.7101 3.26907 19.7387C3.21523 19.6903 3.15892 19.6413 3.10068 19.5906C2.88267 19.401 2.57974 19.1477 2.12813 18.7777C2.87295 14.4611 5.0943 10.3945 8.58793 7.29031C9.2569 7.48758 9.80591 7.95485 10.0741 8.56435C10.3758 9.24985 10.2216 10.0432 9.68136 10.5854ZM17.1589 15.2781C17.568 15.0626 18.5174 15.0311 19.2106 15.008C19.4884 14.9989 19.7509 14.9901 19.9853 14.9717C20.109 14.962 20.2464 14.9638 20.376 14.9733C20.3182 15.1124 20.2994 15.2651 20.3245 15.4166C20.3686 15.6831 20.544 15.9145 20.7979 16.0417C20.97 16.1279 21.2094 16.2774 21.4629 16.4357C22.1797 16.8832 22.9922 17.3903 23.7555 17.4358C24.4496 17.478 24.8358 17.1076 25.0012 16.9498C25.0144 16.9373 25.0269 16.9247 25.0401 16.9133C25.1333 16.8422 25.2206 16.7469 25.2856 16.6319C25.4322 16.6711 25.5863 16.7102 25.7442 16.7503C26.2873 16.888 27.2981 17.1442 27.5214 17.3658C27.9181 17.7596 28.2272 18.509 28.5001 19.1702C28.6379 19.5044 28.7682 19.8198 28.9143 20.1122C28.977 20.2377 29.0387 20.3669 29.1015 20.4978C29.5246 21.3817 30.0043 22.3835 31.0219 23.0064C31.4833 23.2888 32.0489 23.37 32.548 23.4417C32.6084 23.4504 32.6775 23.4603 32.7478 23.4711C32.4516 23.8581 32.0298 24.2259 31.5841 24.6145C30.4488 25.6045 29.0358 26.8367 29.6865 28.8024C29.9937 29.7306 30.008 29.8309 29.5141 30.334C29.4468 30.4026 29.384 30.4652 29.3253 30.5237C28.9023 30.9454 28.5681 31.2784 28.2915 32.0943C28.2112 32.3312 28.1071 32.441 27.9181 32.6402C27.7669 32.7996 27.5786 32.9982 27.405 33.2765C27.197 33.6098 27.1282 33.9309 27.0731 34.1888C27.0187 34.4425 26.9879 34.5699 26.8815 34.6922C26.6393 34.9706 26.1875 35.3749 25.7237 35.6509C25.2926 35.9071 25.0409 35.9422 24.9552 35.9374C24.8573 35.8391 24.5029 35.409 23.9672 33.9204C23.8352 33.5532 23.6519 33.1753 23.4747 32.8099C23.0841 32.0043 22.6803 31.1713 22.8767 30.602C22.8999 30.5348 22.9229 30.4692 22.9454 30.405C23.2593 29.5093 23.5555 28.6635 23.0067 27.4319C22.8396 27.0569 22.5735 26.7829 22.339 26.541C22.1872 26.3846 22.0153 26.2074 21.9887 26.1053C21.9565 25.9809 21.9575 25.8372 21.9587 25.6709C21.9618 25.2222 21.9666 24.5441 21.2467 23.9129C20.2318 23.0234 19.0483 23.2974 18.265 23.4788C18.0244 23.5344 17.7972 23.5872 17.5958 23.6093C16.3073 23.7507 15.157 23.2955 14.4389 22.3598C13.6877 21.381 13.5786 20.0638 14.1544 18.9225C14.4331 18.3702 14.8542 17.9264 15.3418 17.4129C15.4482 17.3006 15.5557 17.1874 15.6632 17.0715C15.8421 16.8784 16.0389 16.617 16.247 16.3402C16.4955 16.01 16.9581 15.3951 17.1589 15.2781Z" fill="#363636"/>
</svg>
